<svg xmlns="http://www.w3.org/2000/svg" viewBox="0 0 512 512">
  <defs>
    <linearGradient id="bg" x1="0%" y1="0%" x2="100%" y2="100%">
      <stop offset="0%" stop-color="#0e1420"/>
      <stop offset="100%" stop-color="#151d2e"/>
    </linearGradient>
  </defs>
  <rect width="512" height="512" rx="110" fill="url(#bg)"/>
  <!-- Car body -->
  <rect x="80" y="240" width="352" height="120" rx="20" fill="#1a2540"/>
  <!-- Car top -->
  <path d="M140 240 L170 170 Q180 155 200 155 L312 155 Q332 155 342 170 L372 240Z" fill="#1e2d55"/>
  <!-- Windows -->
  <rect x="185" y="168" width="55" height="58" rx="6" fill="#3b82f6" opacity="0.7"/>
  <rect x="252" y="168" width="55" height="58" rx="6" fill="#3b82f6" opacity="0.7"/>
  <!-- Wheels -->
  <circle cx="160" cy="360" r="45" fill="#0a0f1e"/>
  <circle cx="160" cy="360" r="28" fill="#1a2540"/>
  <circle cx="160" cy="360" r="12" fill="#f97316"/>
  <circle cx="352" cy="360" r="45" fill="#0a0f1e"/>
  <circle cx="352" cy="360" r="28" fill="#1a2540"/>
  <circle cx="352" cy="360" r="12" fill="#f97316"/>
  <!-- Headlight -->
  <ellipse cx="432" cy="285" rx="18" ry="12" fill="#f97316" opacity="0.9"/>
  <!-- Accent stripe -->
  <rect x="80" y="295" width="352" height="4" rx="2" fill="#f97316" opacity="0.4"/>
</svg>
